<svg width="1450" height="207" viewBox="0 0 1450 207" fill="none" xmlns="http://www.w3.org/2000/svg">
<path fill-rule="evenodd" clip-rule="evenodd" d="M214.509 73.1231C167.435 3.65904 107.522 -3.74287 83.4505 1.23918V97.3217C113.942 97.3217 132.263 118.199 137.612 128.637C177.197 189.561 239.695 198.623 265.996 195.539V97.3217C233.365 97.3217 218.075 81.1893 214.509 73.1231ZM0 99.4125H83.4494V187.779H0V99.4125ZM306.962 1.15479C283.918 1.15479 265.237 20.9364 265.237 45.3381V48.0996C265.237 72.5013 283.918 92.2829 306.962 92.2829C330.006 92.2829 348.687 72.5013 348.687 48.0995V45.3381C348.687 20.9363 330.006 1.15479 306.962 1.15479Z" fill="url(#paint0_linear_1_2252)"/>
<path d="M538.649 46.4135V171.347H514.578L467.87 99.2419H467.125V171.347H438.756V46.4135H463.171L509.363 118.397H510.337V46.4135H538.649Z" fill="black"/>
<path d="M597.579 173.116C588.333 173.116 580.385 171.103 573.737 167.077C567.128 163.01 562.027 157.357 558.435 150.118C554.882 142.839 553.106 134.4 553.106 124.802C553.106 115.164 554.882 106.725 558.435 99.4859C562.027 92.2063 567.128 86.5533 573.737 82.5272C580.385 78.4603 588.333 76.4269 597.579 76.4269C606.825 76.4269 614.753 78.4603 621.363 82.5272C628.011 86.5533 633.111 92.2063 636.665 99.4859C640.256 106.725 642.052 115.164 642.052 124.802C642.052 134.4 640.256 142.839 636.665 150.118C633.111 157.357 628.011 163.01 621.363 167.077C614.753 171.103 606.825 173.116 597.579 173.116ZM597.751 150.606C601.113 150.606 603.959 149.508 606.29 147.312C608.621 145.116 610.397 142.066 611.62 138.162C612.881 134.257 613.511 129.743 613.511 124.619C613.511 119.413 612.881 114.859 611.62 110.954C610.397 107.05 608.621 104 606.29 101.804C603.959 99.6079 601.113 98.5099 597.751 98.5099C594.274 98.5099 591.332 99.6079 588.925 101.804C586.556 104 584.741 107.05 583.48 110.954C582.258 114.859 581.646 119.413 581.646 124.619C581.646 129.743 582.258 134.257 583.48 138.162C584.741 142.066 586.556 145.116 588.925 147.312C591.332 149.508 594.274 150.606 597.751 150.606Z" fill="black"/>
<path d="M681.682 146.763L681.797 111.198H685.694L710.452 77.6469H742.202L705.409 125.717H698.016L681.682 146.763ZM656.408 171.347V46.4135H684.433V171.347H656.408ZM711.083 171.347L688.044 132.427L706.498 111.259L743.463 171.347H711.083Z" fill="black"/>
<path d="M762.376 171.347H747.475L790.573 46.4135H805.244L848.342 171.347H833.441L798.367 66.1784H797.45L762.376 171.347ZM767.878 122.545H827.939V135.966H767.878V122.545Z" fill="black"/>
<path d="M900.552 173.299C892.299 173.299 885.193 171.225 879.233 167.077C873.272 162.929 868.687 157.215 865.478 149.935C862.269 142.656 860.664 134.339 860.664 124.985C860.664 115.469 862.307 107.071 865.593 99.7909C868.917 92.4706 873.54 86.7567 879.462 82.6492C885.422 78.501 892.376 76.4269 900.323 76.4269C906.513 76.4269 912.091 77.6469 917.058 80.0871C922.025 82.5272 926.094 85.9433 929.265 90.3355C932.436 94.7277 934.404 99.8519 935.168 105.708H921.643C920.611 101.438 918.319 97.6558 914.765 94.3617C911.25 91.0269 906.513 89.3595 900.552 89.3595C895.28 89.3595 890.657 90.8235 886.683 93.7517C882.748 96.6391 879.672 100.726 877.456 106.013C875.278 111.259 874.189 117.421 874.189 124.497C874.189 131.736 875.259 138.04 877.399 143.408C879.576 148.776 882.633 152.945 886.568 155.913C890.542 158.882 895.203 160.367 900.552 160.367C904.067 160.367 907.258 159.716 910.123 158.415C912.989 157.113 915.415 155.242 917.402 152.802C919.388 150.362 920.802 147.434 921.643 144.018H935.168C934.404 149.549 932.513 154.531 929.494 158.964C926.514 163.356 922.56 166.853 917.631 169.456C912.74 172.018 907.047 173.299 900.552 173.299Z" fill="black"/>
<path d="M980.845 173.543C975.266 173.543 970.204 172.425 965.657 170.188C961.111 167.911 957.5 164.637 954.826 160.367C952.151 156.056 950.814 150.85 950.814 144.75C950.814 139.382 951.807 135.03 953.794 131.695C955.781 128.32 958.436 125.676 961.76 123.765C965.084 121.854 968.752 120.43 972.764 119.495C976.814 118.519 980.883 117.746 984.971 117.177C990.32 116.445 994.657 115.896 997.981 115.53C1001.34 115.123 1003.79 114.452 1005.32 113.517C1006.88 112.581 1007.67 110.954 1007.67 108.636V108.148C1007.67 102.129 1006.12 97.4525 1003.02 94.1177C999.967 90.7829 995.325 89.1155 989.097 89.1155C982.64 89.1155 977.578 90.6202 973.91 93.6297C970.242 96.6391 967.663 99.8519 966.173 103.268L953.335 98.3879C955.628 92.6943 958.684 88.2614 962.505 85.0893C966.364 81.8765 970.567 79.6397 975.114 78.379C979.698 77.0776 984.207 76.4269 988.639 76.4269C991.466 76.4269 994.714 76.7929 998.382 77.5249C1002.09 78.2163 1005.66 79.66 1009.1 81.8561C1012.58 84.0522 1015.46 87.3667 1017.75 91.7996C1020.05 96.2324 1021.19 102.17 1021.19 109.612V171.347H1007.67V158.659H1006.98C1006.06 160.692 1004.53 162.868 1002.39 165.186C1000.25 167.504 997.407 169.476 993.854 171.103C990.301 172.73 985.964 173.543 980.845 173.543ZM982.908 160.611C988.257 160.611 992.765 159.492 996.433 157.256C1000.14 155.019 1002.93 152.131 1004.8 148.593C1006.71 145.055 1007.67 141.334 1007.67 137.43V124.253C1007.09 124.985 1005.83 125.656 1003.88 126.266C1001.97 126.835 999.757 127.344 997.236 127.791C994.752 128.198 992.326 128.564 989.957 128.889C987.626 129.174 985.735 129.418 984.283 129.621C980.768 130.109 977.482 130.902 974.426 132C971.407 133.058 968.962 134.664 967.09 136.82C965.256 138.934 964.339 141.822 964.339 145.482C964.339 150.484 966.078 154.266 969.554 156.828C973.069 159.35 977.521 160.611 982.908 160.611Z" fill="black"/>
<path d="M1079.12 173.299C1071.78 173.299 1065.31 171.327 1059.69 167.382C1054.07 163.396 1049.68 157.784 1046.51 150.545C1043.34 143.266 1041.75 134.664 1041.75 124.741C1041.75 114.899 1043.34 106.359 1046.51 99.1199C1049.68 91.8809 1054.09 86.289 1059.75 82.3441C1065.4 78.3993 1071.94 76.4269 1079.35 76.4269C1085.08 76.4269 1089.61 77.4436 1092.93 79.477C1096.29 81.4698 1098.85 83.7472 1100.61 86.3093C1102.41 88.8308 1103.8 90.9049 1104.79 92.5316H1105.94V46.4135H1119.47V171.347H1106.4V156.95H1104.79C1103.8 158.659 1102.39 160.814 1100.55 163.417C1098.72 165.979 1096.1 168.277 1092.7 170.31C1089.3 172.303 1084.77 173.299 1079.12 173.299ZM1080.95 160.367C1086.38 160.367 1090.96 158.862 1094.71 155.852C1098.45 152.802 1101.3 148.593 1103.25 143.225C1105.19 137.816 1106.17 131.573 1106.17 124.497C1106.17 117.502 1105.21 111.381 1103.3 106.135C1101.39 100.848 1098.57 96.7408 1094.82 93.8127C1091.08 90.8439 1086.45 89.3595 1080.95 89.3595C1075.22 89.3595 1070.45 90.9252 1066.62 94.0567C1062.84 97.1475 1060 101.357 1058.09 106.684C1056.21 111.971 1055.28 117.909 1055.28 124.497C1055.28 131.167 1056.23 137.226 1058.14 142.676C1060.09 148.085 1062.96 152.396 1066.74 155.608C1070.56 158.781 1075.3 160.367 1080.95 160.367Z" fill="black"/>
<path d="M1183.02 173.299C1174.54 173.299 1167.22 171.306 1161.07 167.321C1154.96 163.295 1150.24 157.683 1146.92 150.484C1143.63 143.245 1141.99 134.827 1141.99 125.229C1141.99 115.631 1143.63 107.172 1146.92 99.8519C1150.24 92.4909 1154.86 86.7567 1160.79 82.6492C1166.75 78.501 1173.7 76.4269 1181.65 76.4269C1186.23 76.4269 1190.76 77.2403 1195.23 78.867C1199.7 80.4937 1203.77 83.1372 1207.44 86.7974C1211.11 90.4168 1214.03 95.2157 1216.21 101.194C1218.38 107.172 1219.47 114.533 1219.47 123.277V129.377H1151.62V116.933H1205.72C1205.72 111.646 1204.72 106.928 1202.74 102.78C1200.79 98.6319 1198 95.3581 1194.37 92.9586C1190.78 90.5592 1186.54 89.3595 1181.65 89.3595C1176.26 89.3595 1171.6 90.7829 1167.66 93.6297C1163.77 96.4358 1160.77 100.096 1158.67 104.61C1156.56 109.124 1155.51 113.964 1155.51 119.129V127.425C1155.51 134.501 1156.66 140.5 1158.95 145.421C1161.28 150.301 1164.51 154.022 1168.64 156.584C1172.76 159.106 1177.56 160.367 1183.02 160.367C1186.58 160.367 1189.79 159.838 1192.65 158.781C1195.55 157.683 1198.06 156.056 1200.16 153.9C1202.26 151.704 1203.88 148.979 1205.03 145.726L1218.1 149.63C1216.72 154.348 1214.41 158.496 1211.16 162.075C1207.91 165.613 1203.9 168.378 1199.13 170.371C1194.35 172.323 1188.98 173.299 1183.02 173.299Z" fill="black"/>
<path d="M1240.05 171.347V77.6469H1253.11V92.2876H1254.26C1256.09 87.2854 1259.06 83.4015 1263.14 80.6361C1267.23 77.83 1272.14 76.4269 1277.87 76.4269C1283.68 76.4269 1288.51 77.83 1292.37 80.6361C1296.27 83.4015 1299.31 87.2854 1301.48 92.2876H1302.4C1304.66 87.448 1308.04 83.6049 1312.55 80.7581C1317.05 77.8706 1322.46 76.4269 1328.76 76.4269C1336.63 76.4269 1343.07 79.05 1348.08 84.2962C1353.08 89.5018 1355.59 97.6152 1355.59 108.636V171.347H1342.06V108.636C1342.06 101.723 1340.28 96.7815 1336.73 93.8127C1333.18 90.8439 1328.99 89.3595 1324.18 89.3595C1317.99 89.3595 1313.19 91.3522 1309.79 95.3377C1306.39 99.2826 1304.69 104.285 1304.69 110.344V171.347H1290.94V107.172C1290.94 101.845 1289.32 97.5542 1286.07 94.3007C1282.82 91.0065 1278.64 89.3595 1273.52 89.3595C1270 89.3595 1266.72 90.3558 1263.66 92.3486C1260.64 94.3414 1258.2 97.1068 1256.32 100.645C1254.49 104.142 1253.57 108.189 1253.57 112.785V171.347H1240.05Z" fill="black"/>
<path d="M1385.87 206.485C1383.58 206.485 1381.54 206.281 1379.74 205.875C1377.95 205.509 1376.7 205.143 1376.02 204.777L1379.46 192.088C1382.74 192.983 1385.65 193.308 1388.17 193.064C1390.69 192.82 1392.92 191.62 1394.87 189.465C1396.86 187.35 1398.67 183.914 1400.32 179.155L1402.84 171.835L1370.29 77.6469H1384.96L1409.26 152.314H1410.17L1434.47 77.6469H1449.15L1411.78 185.012C1410.1 189.851 1408.02 193.857 1405.53 197.029C1403.05 200.242 1400.16 202.621 1396.88 204.167C1393.63 205.712 1389.96 206.485 1385.87 206.485Z" fill="black"/>
<defs>
<linearGradient id="paint0_linear_1_2252" x1="22.1663" y1="-28.9953" x2="363.83" y2="191.632" gradientUnits="userSpaceOnUse">
<stop stop-color="#CC6327"/>
<stop offset="1" stop-color="#FFCD81"/>
</linearGradient>
</defs>
</svg>
