<svg width="1213" height="191" viewBox="0 0 1213 191" fill="none" xmlns="http://www.w3.org/2000/svg">
<path fill-rule="evenodd" clip-rule="evenodd" d="M220.389 71.0416C172.024 3.55488 110.469 -3.63633 85.7374 1.20391V94.5514C117.064 94.5514 135.888 114.834 141.384 124.976C182.055 184.165 246.266 192.97 273.288 189.973V94.5514C239.762 94.5514 224.053 78.8782 220.389 71.0416ZM0 96.5827H85.7374V182.434H0V96.5827ZM315.378 1.12192C291.703 1.12192 272.51 20.3404 272.51 44.0476V46.7304C272.51 70.4376 291.703 89.656 315.378 89.656C339.054 89.656 358.247 70.4375 358.247 46.7304V44.0476C358.247 20.3404 339.054 1.12192 315.378 1.12192Z" fill="url(#paint0_linear_1_2249)"/>
<path d="M533.657 38.7273V159.526H508.865L460.756 89.8072H459.989V159.526H430.77V38.7273H455.916L503.493 108.328H504.496V38.7273H533.657Z" fill="black"/>
<path d="M594.353 161.237C584.83 161.237 576.644 159.29 569.797 155.397C562.989 151.465 557.735 145.999 554.036 139C550.376 131.961 548.547 123.802 548.547 114.521C548.547 105.202 550.376 97.0426 554.036 90.0431C557.735 83.0044 562.989 77.5386 569.797 73.6457C576.644 69.7134 584.83 67.7473 594.353 67.7473C603.876 67.7473 612.042 69.7134 618.85 73.6457C625.697 77.5386 630.951 83.0044 634.61 90.0431C638.31 97.0426 640.159 105.202 640.159 114.521C640.159 123.802 638.31 131.961 634.61 139C630.951 145.999 625.697 151.465 618.85 155.397C612.042 159.29 603.876 161.237 594.353 161.237ZM594.53 139.472C597.993 139.472 600.925 138.41 603.325 136.286C605.726 134.163 607.556 131.214 608.815 127.439C610.113 123.664 610.763 119.299 610.763 114.344C610.763 109.311 610.113 104.907 608.815 101.132C607.556 97.3571 605.726 94.4079 603.325 92.2845C600.925 90.1611 597.993 89.0994 594.53 89.0994C590.949 89.0994 587.919 90.1611 585.439 92.2845C583 94.4079 581.13 97.3571 579.832 101.132C578.572 104.907 577.943 109.311 577.943 114.344C577.943 119.299 578.572 123.664 579.832 127.439C581.13 131.214 583 134.163 585.439 136.286C587.919 138.41 590.949 139.472 594.53 139.472Z" fill="black"/>
<path d="M680.977 135.756L681.095 101.368H685.109L710.61 68.927H743.312L705.415 115.406H697.801L680.977 135.756ZM654.946 159.526V38.7273H683.811V159.526H654.946ZM711.259 159.526L687.53 121.894L706.537 101.427L744.61 159.526H711.259Z" fill="black"/>
<path d="M759.131 38.7273H776.604L817.688 139H819.105L860.189 38.7273H877.661V159.526H863.966V67.7473H862.786L825.007 159.526H811.785L774.007 67.7473H772.826V159.526H759.131V38.7273Z" fill="black"/>
<path d="M943.139 161.413C934.402 161.413 926.866 159.487 920.531 155.633C914.234 151.74 909.374 146.314 905.951 139.354C902.566 132.354 900.874 124.214 900.874 114.934C900.874 105.654 902.566 97.4751 905.951 90.3971C909.374 83.2797 914.136 77.7352 920.235 73.7636C926.374 69.7527 933.537 67.7473 941.722 67.7473C946.444 67.7473 951.107 68.5337 955.712 70.1066C960.316 71.6795 964.507 74.2355 968.285 77.7745C972.063 81.2742 975.073 85.9143 977.316 91.6947C979.559 97.4751 980.681 104.592 980.681 113.047V118.945H910.791V106.912H966.514C966.514 101.801 965.491 97.2392 963.445 93.2283C961.438 89.2174 958.565 86.0519 954.826 83.7319C951.127 81.4119 946.759 80.2518 941.722 80.2518C936.173 80.2518 931.372 81.6281 927.319 84.3807C923.305 87.094 920.216 90.633 918.051 94.9978C915.887 99.3626 914.805 104.042 914.805 109.036V117.058C914.805 123.9 915.985 129.7 918.347 134.458C920.747 139.177 924.072 142.775 928.322 145.252C932.572 147.69 937.511 148.909 943.139 148.909C946.798 148.909 950.104 148.398 953.055 147.375C956.046 146.314 958.624 144.741 960.788 142.657C962.953 140.533 964.625 137.899 965.806 134.753L979.264 138.528C977.847 143.089 975.467 147.1 972.122 150.56C968.777 153.982 964.645 156.655 959.726 158.582C954.807 160.47 949.278 161.413 943.139 161.413Z" fill="black"/>
<path d="M1036.11 161.413C1028.55 161.413 1021.88 159.506 1016.1 155.692C1010.31 151.838 1005.79 146.412 1002.52 139.413C999.255 132.374 997.622 124.057 997.622 114.462C997.622 104.946 999.255 96.6886 1002.52 89.6892C1005.79 82.6898 1010.33 77.283 1016.16 73.4687C1021.98 69.6544 1028.71 67.7473 1036.34 67.7473C1042.25 67.7473 1046.91 68.7304 1050.33 70.6965C1053.8 72.6233 1056.43 74.8253 1058.24 77.3027C1060.09 79.7407 1061.53 81.7461 1062.55 83.319H1063.73V38.7273H1077.66V159.526H1064.21V145.606H1062.55C1061.53 147.257 1060.07 149.341 1058.19 151.858C1056.3 154.335 1053.6 156.557 1050.1 158.523C1046.6 160.45 1041.93 161.413 1036.11 161.413ZM1038 148.909C1043.59 148.909 1048.31 147.454 1052.16 144.544C1056.02 141.595 1058.95 137.525 1060.96 132.334C1062.97 127.105 1063.97 121.069 1063.97 114.226C1063.97 107.463 1062.99 101.545 1061.02 96.4724C1059.05 91.3605 1056.14 87.3889 1052.28 84.5577C1048.43 81.6871 1043.66 80.2518 1038 80.2518C1032.09 80.2518 1027.18 81.7658 1023.24 84.7936C1019.34 87.7821 1016.41 91.852 1014.45 97.0032C1012.52 102.115 1011.55 107.856 1011.55 114.226C1011.55 120.675 1012.54 126.534 1014.5 131.804C1016.51 137.034 1019.46 141.202 1023.36 144.308C1027.29 147.375 1032.17 148.909 1038 148.909Z" fill="black"/>
<path d="M1105.11 159.526V68.927H1119.04V159.526H1105.11ZM1112.2 53.8271C1109.48 53.8271 1107.14 52.9031 1105.17 51.0549C1103.24 49.2067 1102.28 46.985 1102.28 44.3897C1102.28 41.7944 1103.24 39.5727 1105.17 37.7246C1107.14 35.8764 1109.48 34.9523 1112.2 34.9523C1114.91 34.9523 1117.23 35.8764 1119.16 37.7246C1121.13 39.5727 1122.11 41.7944 1122.11 44.3897C1122.11 46.985 1121.13 49.2067 1119.16 51.0549C1117.23 52.9031 1114.91 53.8271 1112.2 53.8271Z" fill="black"/>
<path d="M1171.24 161.649C1165.49 161.649 1160.28 160.568 1155.6 158.405C1150.91 156.203 1147.2 153.038 1144.44 148.909C1141.69 144.741 1140.31 139.707 1140.31 133.809C1140.31 128.619 1141.33 124.411 1143.38 121.187C1145.43 117.923 1148.16 115.367 1151.58 113.519C1155.01 111.671 1158.79 110.294 1162.92 109.39C1167.09 108.446 1171.28 107.699 1175.49 107.148C1181 106.441 1185.47 105.91 1188.89 105.556C1192.35 105.163 1194.87 104.514 1196.45 103.609C1198.06 102.705 1198.87 101.132 1198.87 98.8907V98.4188C1198.87 92.5991 1197.27 88.077 1194.08 84.8526C1190.94 81.6281 1186.15 80.0159 1179.74 80.0159C1173.09 80.0159 1167.88 81.4708 1164.1 84.3807C1160.32 87.2906 1157.66 90.3971 1156.13 93.7001L1142.91 88.9814C1145.27 83.4763 1148.42 79.1901 1152.35 76.123C1156.33 73.0165 1160.65 70.8538 1165.34 69.6348C1170.06 68.3765 1174.7 67.7473 1179.27 67.7473C1182.18 67.7473 1185.53 68.1012 1189.3 68.809C1193.12 69.4775 1196.8 70.8734 1200.34 72.9968C1203.92 75.1203 1206.89 78.3251 1209.25 82.6112C1211.62 86.8974 1212.8 92.6384 1212.8 99.8344V159.526H1198.87V147.257H1198.16C1197.21 149.224 1195.64 151.327 1193.43 153.569C1191.23 155.81 1188.3 157.717 1184.64 159.29C1180.98 160.863 1176.51 161.649 1171.24 161.649ZM1173.37 149.145C1178.87 149.145 1183.52 148.063 1187.3 145.901C1191.11 143.738 1193.99 140.946 1195.91 137.525C1197.88 134.104 1198.87 130.506 1198.87 126.731V113.991C1198.28 114.698 1196.98 115.347 1194.97 115.937C1193 116.488 1190.72 116.979 1188.12 117.412C1185.56 117.805 1183.07 118.159 1180.63 118.473C1178.23 118.749 1176.28 118.985 1174.78 119.181C1171.16 119.653 1167.78 120.42 1164.63 121.481C1161.52 122.504 1159 124.057 1157.07 126.141C1155.18 128.186 1154.24 130.978 1154.24 134.517C1154.24 139.354 1156.03 143.011 1159.61 145.488C1163.23 147.926 1167.82 149.145 1173.37 149.145Z" fill="black"/>
<defs>
<linearGradient id="paint0_linear_1_2249" x1="-41.5047" y1="-24.2432" x2="361.963" y2="203.438" gradientUnits="userSpaceOnUse">
<stop stop-color="#69FFA5"/>
<stop offset="1" stop-color="#FBFE70"/>
</linearGradient>
</defs>
</svg>
