<svg width="1019" height="191" viewBox="0 0 1019 191" fill="none" xmlns="http://www.w3.org/2000/svg">
<path fill-rule="evenodd" clip-rule="evenodd" d="M217.447 70.0003C169.728 3.50277 108.995 -3.58303 84.5929 1.18626V93.1655C115.502 93.1655 134.074 113.151 139.497 123.144C179.624 181.465 242.979 190.141 269.64 187.189V93.1655C236.562 93.1655 221.062 77.722 217.447 70.0003ZM0 95.167H84.5929V179.76H0V95.167ZM311.168 1.10548C287.809 1.10548 268.872 20.0423 268.872 43.4019V46.0454C268.872 69.4051 287.809 88.3419 311.168 88.3419C334.528 88.3419 353.465 69.4051 353.465 46.0454V43.4019C353.465 20.0422 334.528 1.10548 311.168 1.10548Z" fill="url(#paint0_linear_1_2263)"/>
<path d="M531.852 38.1614V157.291H507.422L460.014 88.5353H459.258V157.291H430.465V38.1614H455.245L502.128 106.8H503.117V38.1614H531.852Z" fill="white"/>
<path d="M591.664 158.977C582.28 158.977 574.214 157.058 567.466 153.219C560.757 149.341 555.58 143.951 551.935 137.048C548.329 130.106 546.525 122.06 546.525 112.908C546.525 103.717 548.329 95.6707 551.935 88.768C555.58 81.8265 560.757 76.4363 567.466 72.5971C574.214 68.7192 582.28 66.7803 591.664 66.7803C601.049 66.7803 609.095 68.7192 615.804 72.5971C622.552 76.4363 627.729 81.8265 631.335 88.768C634.98 95.6707 636.803 103.717 636.803 112.908C636.803 122.06 634.98 130.106 631.335 137.048C627.729 143.951 622.552 149.341 615.804 153.219C609.095 157.058 601.049 158.977 591.664 158.977ZM591.839 137.513C595.251 137.513 598.14 136.466 600.506 134.372C602.871 132.278 604.675 129.37 605.916 125.647C607.195 121.924 607.835 117.62 607.835 112.733C607.835 107.77 607.195 103.426 605.916 99.7037C604.675 95.9809 602.871 93.0725 600.506 90.9784C598.14 88.8843 595.251 87.8373 591.839 87.8373C588.31 87.8373 585.324 88.8843 582.881 90.9784C580.476 93.0725 578.634 95.9809 577.355 99.7037C576.114 103.426 575.493 107.77 575.493 112.733C575.493 117.62 576.114 121.924 577.355 125.647C578.634 129.37 580.476 132.278 582.881 134.372C585.324 136.466 588.31 137.513 591.839 137.513Z" fill="white"/>
<path d="M677.027 133.849L677.143 99.9363H681.098L706.227 67.9437H738.452L701.108 113.78H693.605L677.027 133.849ZM651.374 157.291V38.1614H679.819V157.291H651.374ZM706.867 157.291L683.483 120.179L702.213 99.9945L739.732 157.291H706.867Z" fill="white"/>
<path d="M754.042 157.291V38.1614H794.294C803.64 38.1614 811.279 39.8483 817.213 43.222C823.185 46.557 827.605 51.0748 830.475 56.7753C833.345 62.4758 834.78 68.8356 834.78 75.8546C834.78 82.8736 833.345 89.2527 830.475 94.992C827.644 100.731 823.262 105.307 817.329 108.72C811.396 112.094 803.795 113.78 794.527 113.78H765.675V100.983H794.062C800.46 100.983 805.598 99.8782 809.476 97.6678C813.354 95.4574 816.166 92.4714 817.911 88.7098C819.694 84.9095 820.586 80.6244 820.586 75.8546C820.586 71.0848 819.694 66.8191 817.911 63.0575C816.166 59.2959 813.335 56.3487 809.418 54.2159C805.501 52.0443 800.305 50.9585 793.829 50.9585H768.467V157.291H754.042Z" fill="white"/>
<path d="M882.449 159.385C876.787 159.385 871.649 158.318 867.034 156.185C862.419 154.014 858.755 150.892 856.04 146.82C853.326 142.71 851.968 137.746 851.968 131.929C851.968 126.81 852.977 122.661 854.993 119.481C857.01 116.262 859.705 113.742 863.078 111.919C866.452 110.096 870.175 108.739 874.247 107.847C878.357 106.917 882.487 106.18 886.637 105.637C892.066 104.939 896.467 104.415 899.841 104.066C903.254 103.679 905.735 103.039 907.287 102.147C908.877 101.255 909.671 99.7037 909.671 97.4933V97.0279C909.671 91.2886 908.101 86.829 904.96 83.6492C901.858 80.4693 897.146 78.8793 890.825 78.8793C884.271 78.8793 879.133 80.3142 875.41 83.1838C871.687 86.0535 869.07 89.117 867.557 92.3744L854.528 87.721C856.854 82.2919 859.957 78.065 863.835 75.0402C867.751 71.9767 872.017 69.8438 876.632 68.6417C881.285 67.4008 885.861 66.7803 890.36 66.7803C893.229 66.7803 896.525 67.1293 900.248 67.8273C904.01 68.4866 907.636 69.8632 911.126 71.9573C914.655 74.0514 917.582 77.2119 919.909 81.4388C922.236 85.6657 923.399 91.3274 923.399 98.424V157.291H909.671V145.191H908.973C908.043 147.13 906.492 149.205 904.32 151.415C902.148 153.626 899.259 155.507 895.653 157.058C892.046 158.609 887.645 159.385 882.449 159.385ZM884.543 147.053C889.972 147.053 894.548 145.986 898.27 143.854C902.032 141.721 904.863 138.967 906.763 135.594C908.702 132.22 909.671 128.672 909.671 124.949V112.384C909.09 113.082 907.81 113.722 905.832 114.304C903.893 114.847 901.644 115.332 899.085 115.758C896.564 116.146 894.102 116.495 891.697 116.805C889.332 117.077 887.412 117.309 885.939 117.503C882.371 117.969 879.036 118.725 875.934 119.772C872.87 120.78 870.388 122.312 868.488 124.367C866.627 126.384 865.696 129.137 865.696 132.627C865.696 137.397 867.461 141.003 870.989 143.446C874.557 145.851 879.075 147.053 884.543 147.053Z" fill="white"/>
<path d="M954.098 190.796C951.771 190.796 949.696 190.602 947.874 190.214C946.051 189.865 944.791 189.516 944.093 189.167L947.583 177.068C950.918 177.921 953.865 178.231 956.424 177.999C958.984 177.766 961.252 176.622 963.23 174.567C965.247 172.55 967.089 169.273 968.756 164.736L971.316 157.756L938.276 67.9437H953.167L977.83 139.142H978.761L1003.42 67.9437H1018.32L980.39 170.32C978.684 174.935 976.57 178.755 974.049 181.779C971.529 184.843 968.601 187.112 965.266 188.585C961.97 190.059 958.247 190.796 954.098 190.796Z" fill="white"/>
<defs>
<linearGradient id="paint0_linear_1_2263" x1="22.47" y1="-27.7571" x2="356.876" y2="200.908" gradientUnits="userSpaceOnUse">
<stop stop-color="#00FFC6"/>
<stop offset="1" stop-color="#6BD9FF"/>
<stop offset="1" stop-color="#06DFFF"/>
</linearGradient>
</defs>
</svg>
