<svg width="1113" height="191" viewBox="0 0 1113 191" fill="none" xmlns="http://www.w3.org/2000/svg">
<path fill-rule="evenodd" clip-rule="evenodd" d="M220.927 71.0416C172.444 3.55488 110.739 -3.63633 85.9465 1.20391V94.5514C117.35 94.5514 136.22 114.834 141.729 124.976C182.499 184.165 246.867 192.97 273.954 189.973V94.5514C240.347 94.5514 224.599 78.8782 220.927 71.0416ZM0 96.5827H85.9465V182.434H0V96.5827ZM316.147 1.12192C292.414 1.12192 273.174 20.3404 273.174 44.0476V46.7304C273.174 70.4376 292.414 89.656 316.147 89.656C339.881 89.656 359.121 70.4375 359.121 46.7304V44.0476C359.121 20.3404 339.881 1.12192 316.147 1.12192Z" fill="url(#paint0_linear_1_2256)"/>
<path d="M532.801 37.574V158.02H508.005L459.888 88.5049H459.12V158.02H429.896V37.574H455.047L502.632 106.972H503.636V37.574H532.801Z" fill="black"/>
<path d="M593.508 159.726C583.983 159.726 575.796 157.785 568.948 153.903C562.139 149.983 556.884 144.533 553.184 137.554C549.524 130.536 547.694 122.4 547.694 113.147C547.694 103.855 549.524 95.7192 553.184 88.7402C556.884 81.722 562.139 76.2721 568.948 72.3905C575.796 68.4698 583.983 66.5094 593.508 66.5094C603.033 66.5094 611.2 68.4698 618.009 72.3905C624.858 76.2721 630.112 81.722 633.773 88.7402C637.472 95.7192 639.322 103.855 639.322 113.147C639.322 122.4 637.472 130.536 633.773 137.554C630.112 144.533 624.858 149.983 618.009 153.903C611.2 157.785 603.033 159.726 593.508 159.726ZM593.685 138.024C597.149 138.024 600.081 136.966 602.482 134.849C604.883 132.731 606.713 129.791 607.973 126.027C609.271 122.263 609.921 117.911 609.921 112.971C609.921 107.952 609.271 103.561 607.973 99.7968C606.713 96.0328 604.883 93.0922 602.482 90.975C600.081 88.8578 597.149 87.7992 593.685 87.7992C590.103 87.7992 587.073 88.8578 584.593 90.975C582.153 93.0922 580.283 96.0328 578.984 99.7968C577.725 103.561 577.095 107.952 577.095 112.971C577.095 117.911 577.725 122.263 578.984 126.027C580.283 129.791 582.153 132.731 584.593 134.849C587.073 136.966 590.103 138.024 593.685 138.024Z" fill="black"/>
<path d="M680.148 134.319L680.266 100.032H684.28L709.785 67.6856H742.493L704.59 114.029H696.974L680.148 134.319ZM654.111 158.02V37.574H682.982V158.02H654.111ZM710.435 158.02L686.701 120.498L705.711 100.091L743.792 158.02H710.435Z" fill="black"/>
<path d="M751.703 50.5126V37.574H842.387V50.5126H804.366V158.02H789.724V50.5126H751.703Z" fill="black"/>
<path d="M887.965 159.902C879.227 159.902 871.69 157.981 865.353 154.139C859.055 150.257 854.195 144.846 850.77 137.907C847.385 130.928 845.693 122.812 845.693 113.559C845.693 104.306 847.385 96.1504 850.77 89.093C854.195 81.9964 858.957 76.4681 865.058 72.5082C871.198 68.509 878.361 66.5094 886.548 66.5094C891.271 66.5094 895.935 67.2935 900.54 68.8618C905.145 70.4301 909.337 72.9786 913.115 76.5074C916.894 79.9968 919.905 84.6234 922.148 90.3869C924.392 96.1504 925.514 103.247 925.514 111.677V117.558H855.611V105.56H911.344C911.344 100.463 910.321 95.9152 908.274 91.916C906.267 87.9168 903.394 84.7606 899.655 82.4473C895.955 80.1341 891.586 78.9774 886.548 78.9774C880.998 78.9774 876.196 80.3497 872.142 83.0943C868.128 85.7996 865.038 89.3283 862.873 93.6803C860.708 98.0324 859.626 102.698 859.626 107.678V115.676C859.626 122.498 860.807 128.281 863.168 133.025C865.569 137.73 868.895 141.318 873.146 143.788C877.397 146.219 882.336 147.434 887.965 147.434C891.625 147.434 894.931 146.924 897.883 145.905C900.875 144.846 903.453 143.278 905.617 141.2C907.782 139.083 909.455 136.456 910.636 133.319L924.097 137.083C922.68 141.631 920.298 145.631 916.953 149.081C913.607 152.492 909.475 155.158 904.555 157.079C899.635 158.961 894.105 159.902 887.965 159.902Z" fill="black"/>
<path d="M983.549 159.902C975.047 159.902 967.726 157.903 961.586 153.903C955.446 149.904 950.723 144.396 947.417 137.377C944.111 130.359 942.458 122.341 942.458 113.323C942.458 104.149 944.15 96.0524 947.535 89.0342C950.959 81.9768 955.722 76.4681 961.823 72.5082C967.963 68.509 975.126 66.5094 983.313 66.5094C989.689 66.5094 995.435 67.6856 1000.55 70.0381C1005.67 72.3905 1009.86 75.684 1013.13 79.9184C1016.39 84.1529 1018.42 89.093 1019.21 94.739H1005.28C1004.21 90.6221 1001.85 86.9758 998.191 83.8C994.569 80.585 989.689 78.9774 983.549 78.9774C978.117 78.9774 973.355 80.3889 969.261 83.2119C965.207 85.9956 962.039 89.936 959.756 95.033C957.513 100.091 956.391 106.031 956.391 112.853C956.391 119.832 957.493 125.909 959.697 131.085C961.941 136.26 965.089 140.279 969.143 143.141C973.237 146.003 978.039 147.434 983.549 147.434C987.17 147.434 990.456 146.807 993.408 145.552C996.36 144.298 998.86 142.494 1000.91 140.142C1002.95 137.789 1004.41 134.966 1005.28 131.673H1019.21C1018.42 137.005 1016.47 141.808 1013.36 146.082C1010.29 150.316 1006.22 153.688 1001.14 156.197C996.105 158.667 990.24 159.902 983.549 159.902Z" fill="black"/>
<path d="M1053.51 103.678V158.02H1039.58V37.574H1053.51V81.8004H1054.69C1056.82 77.1347 1060 73.4295 1064.26 70.685C1068.55 67.9012 1074.25 66.5094 1081.38 66.5094C1087.56 66.5094 1092.97 67.7444 1097.61 70.2145C1102.26 72.6454 1105.86 76.3897 1108.42 81.4475C1111.01 86.4661 1112.31 92.857 1112.31 100.62V158.02H1098.38V101.561C1098.38 94.3861 1096.51 88.8382 1092.77 84.9174C1089.07 80.9574 1083.93 78.9774 1077.36 78.9774C1072.8 78.9774 1068.7 79.938 1065.08 81.8592C1061.5 83.7804 1058.67 86.5838 1056.58 90.2693C1054.53 93.9548 1053.51 98.4245 1053.51 103.678Z" fill="black"/>
<defs>
<linearGradient id="paint0_linear_1_2256" x1="22.8296" y1="-28.17" x2="362.347" y2="204.247" gradientUnits="userSpaceOnUse">
<stop stop-color="#5B40FF"/>
<stop offset="1" stop-color="#A8BBFF"/>
</linearGradient>
</defs>
</svg>
