<svg width="342" height="181" viewBox="0 0 342 181" fill="none" xmlns="http://www.w3.org/2000/svg">
<path fill-rule="evenodd" clip-rule="evenodd" d="M210.177 67.457C164.054 3.37551 105.351 -3.45285 81.7653 1.14316V89.7804C111.641 89.7804 129.592 109.04 134.833 118.67C173.619 174.872 234.855 183.233 260.624 180.387V89.7804C228.653 89.7804 213.671 74.8981 210.177 67.457ZM0 91.7093H81.7642V173.229H0V91.7093ZM300.763 1.06531C278.185 1.06531 259.881 19.3141 259.881 41.825V44.3725C259.881 66.8834 278.185 85.1321 300.763 85.1321C323.342 85.1321 341.645 66.8834 341.645 44.3724V41.825C341.645 19.314 323.342 1.06531 300.763 1.06531Z" fill="url(#paint0_linear_1_2253)"/>
<defs>
<linearGradient id="paint0_linear_1_2253" x1="21.7186" y1="-26.7485" x2="344.324" y2="194.51" gradientUnits="userSpaceOnUse">
<stop stop-color="#CC6327"/>
<stop offset="1" stop-color="#FFCD81"/>
</linearGradient>
</defs>
</svg>
