<svg width="359" height="191" viewBox="0 0 359 191" fill="none" xmlns="http://www.w3.org/2000/svg">
<path fill-rule="evenodd" clip-rule="evenodd" d="M220.389 71.0416C172.024 3.55488 110.469 -3.63633 85.7374 1.20391V94.5514C117.064 94.5514 135.888 114.834 141.384 124.976C182.055 184.165 246.266 192.97 273.288 189.973V94.5514C239.762 94.5514 224.053 78.8782 220.389 71.0416ZM0 96.5827H85.7374V182.434H0V96.5827ZM315.378 1.12192C291.703 1.12192 272.51 20.3404 272.51 44.0476V46.7304C272.51 70.4376 291.703 89.656 315.378 89.656C339.054 89.656 358.247 70.4375 358.247 46.7304V44.0476C358.247 20.3404 339.054 1.12192 315.378 1.12192Z" fill="url(#paint0_linear_1_2250)"/>
<defs>
<linearGradient id="paint0_linear_1_2250" x1="-41.5047" y1="-24.2432" x2="361.963" y2="203.438" gradientUnits="userSpaceOnUse">
<stop stop-color="#69FFA5"/>
<stop offset="1" stop-color="#FBFE70"/>
</linearGradient>
</defs>
</svg>
