<svg width="360" height="191" viewBox="0 0 360 191" fill="none" xmlns="http://www.w3.org/2000/svg">
<path fill-rule="evenodd" clip-rule="evenodd" d="M220.927 71.0416C172.444 3.55488 110.739 -3.63633 85.9465 1.20391V94.5514C117.35 94.5514 136.22 114.834 141.729 124.976C182.499 184.165 246.867 192.97 273.954 189.973V94.5514C240.347 94.5514 224.599 78.8782 220.927 71.0416ZM0 96.5827H85.9465V182.434H0V96.5827ZM316.147 1.12192C292.414 1.12192 273.174 20.3404 273.174 44.0476V46.7304C273.174 70.4376 292.414 89.656 316.147 89.656C339.881 89.656 359.121 70.4375 359.121 46.7304V44.0476C359.121 20.3404 339.881 1.12192 316.147 1.12192Z" fill="url(#paint0_linear_1_2257)"/>
<defs>
<linearGradient id="paint0_linear_1_2257" x1="22.8296" y1="-28.17" x2="362.347" y2="204.247" gradientUnits="userSpaceOnUse">
<stop stop-color="#5B40FF"/>
<stop offset="1" stop-color="#A8BBFF"/>
</linearGradient>
</defs>
</svg>
